<svg xmlns="http://www.w3.org/2000/svg" viewBox="0 0 512 512">
  <defs>
    <linearGradient id="flame" x1="0" y1="0" x2="0" y2="1">
      <stop offset="0" stop-color="#f7b25e"/>
      <stop offset="0.5" stop-color="#e07e2a"/>
      <stop offset="1" stop-color="#bf5316"/>
    </linearGradient>
  </defs>
  <rect width="512" height="512" fill="#1c1812"/>
  <g transform="translate(256 262) scale(17) translate(-12 -12)">
    <path d="M8.5 14.5A2.5 2.5 0 0 0 11 12c0-1.38-.5-2-1-3-1.072-2.143-.224-4.054 2-6 .5 2.5 2 4.9 4 6.5 2 1.6 3 3.5 3 5.5a7 7 0 1 1-14 0c0-1.153.433-2.294 1-3a2.5 2.5 0 0 0 2.5 2.5z" fill="url(#flame)"/>
  </g>
</svg>
